<svg width="21" height="17" viewBox="0 0 21 17" fill="#fff" xmlns="http://www.w3.org/2000/svg">
<path d="M10.8794 9.76787C10.681 9.87239 10.4582 9.9272 10.2317 9.9272C10.0052 9.9272 9.78245 9.87239 9.58409 9.76787L0.183228 4.80933V14.0913C0.18376 14.6008 0.39567 15.0893 0.772453 15.4495C1.14924 15.8098 1.66011 16.0124 2.19296 16.0129H18.2708C18.8037 16.0124 19.3146 15.8098 19.6913 15.4495C20.0681 15.0893 20.28 14.6008 20.2806 14.0913V4.80933L10.8794 9.76787Z" fill="white"/>
<path d="M18.2708 0H2.19296C1.66011 0.000508707 1.14924 0.20312 0.772453 0.563369C0.39567 0.923618 0.18376 1.41208 0.183228 1.92154V3.52283C0.183205 3.58013 0.19926 3.63638 0.229719 3.68573C0.260178 3.73507 0.303926 3.7757 0.3564 3.80338L10.0701 8.9275C10.1197 8.95363 10.1753 8.96733 10.2319 8.96733C10.2885 8.96733 10.3441 8.95363 10.3937 8.9275L20.1074 3.80338C20.1599 3.7757 20.2036 3.73507 20.2341 3.68573C20.2645 3.63638 20.2806 3.58013 20.2806 3.52283V1.92154C20.28 1.41208 20.0681 0.923618 19.6913 0.563369C19.3146 0.20312 18.8037 0.000508707 18.2708 0Z" fill="white"/>
</svg>
