<svg width="20" height="21" viewBox="0 0 20 21" fill="#fff" xmlns="http://www.w3.org/2000/svg">
<path d="M18.5546 19.2734L19.5387 15.2088C19.6453 14.7672 19.4288 14.3148 19.0286 14.1364L14.8006 12.2749C14.4307 12.112 13.9913 12.2227 13.7307 12.5477L11.8025 14.9203C8.90917 13.5233 6.525 11.0742 5.1823 8.02045L7.52154 6.07616C7.84193 5.8096 7.95624 5.36404 7.80315 4.98178L6.05357 0.61318C5.88208 0.195836 5.44481 -0.0332293 5.01316 0.069645L1.04034 1.01922C0.627776 1.11813 0.324489 1.49398 0.316774 1.93531C0.141925 11.9375 7.89382 20.0328 17.6517 20.0026C18.0778 20.0013 18.4521 19.6994 18.5546 19.2734Z" fill="white"/>
</svg>
